<svg width="338" height="46" viewBox="0 0 338 46" fill="none" xmlns="http://www.w3.org/2000/svg">
<g filter="url(#filter0_d)">
<rect x="5" y="1" width="328" height="36" rx="5" fill="white" stroke="#636363" stroke-width="0.2"/>
<path d="M70.334 21.9805C70.6895 21.9805 70.9844 21.877 71.2188 21.6699C71.4531 21.4629 71.5781 21.207 71.5938 20.9023H72.9355C72.9199 21.2969 72.7969 21.666 72.5664 22.0098C72.3359 22.3496 72.0234 22.6191 71.6289 22.8184C71.2344 23.0176 70.8086 23.1172 70.3516 23.1172C69.4648 23.1172 68.7617 22.8301 68.2422 22.2559C67.7227 21.6816 67.4629 20.8887 67.4629 19.877V19.7305C67.4629 18.7656 67.7207 17.9941 68.2363 17.416C68.752 16.834 69.4551 16.543 70.3457 16.543C71.0996 16.543 71.7129 16.7637 72.1855 17.2051C72.6621 17.6426 72.9121 18.2188 72.9355 18.9336H71.5938C71.5781 18.5703 71.4531 18.2715 71.2188 18.0371C70.9883 17.8027 70.6934 17.6855 70.334 17.6855C69.873 17.6855 69.5176 17.8535 69.2676 18.1895C69.0176 18.5215 68.8906 19.0273 68.8867 19.707V19.9355C68.8867 20.623 69.0098 21.1367 69.2559 21.4766C69.5059 21.8125 69.8652 21.9805 70.334 21.9805ZM73.7441 19.7715C73.7441 19.1504 73.8672 18.5918 74.1133 18.0957C74.3594 17.5957 74.7051 17.2129 75.1504 16.9473C75.5957 16.6777 76.1074 16.543 76.6855 16.543C77.541 16.543 78.2344 16.8184 78.7656 17.3691C79.3008 17.9199 79.5898 18.6504 79.6328 19.5605L79.6387 19.8945C79.6387 20.5195 79.5176 21.0781 79.2754 21.5703C79.0371 22.0625 78.6934 22.4434 78.2441 22.7129C77.7988 22.9824 77.2832 23.1172 76.6973 23.1172C75.8027 23.1172 75.0859 22.8203 74.5469 22.2266C74.0117 21.6289 73.7441 20.834 73.7441 19.8418V19.7715ZM75.168 19.8945C75.168 20.5469 75.3027 21.0586 75.5723 21.4297C75.8418 21.7969 76.2168 21.9805 76.6973 21.9805C77.1777 21.9805 77.5508 21.793 77.8164 21.418C78.0859 21.043 78.2207 20.4941 78.2207 19.7715C78.2207 19.1309 78.082 18.623 77.8047 18.248C77.5312 17.873 77.1582 17.6855 76.6855 17.6855C76.2207 17.6855 75.8516 17.8711 75.5781 18.2422C75.3047 18.6094 75.168 19.1602 75.168 19.8945ZM82.1641 16.6602L82.2051 17.3926C82.6738 16.8262 83.2891 16.543 84.0508 16.543C85.3711 16.543 86.043 17.2988 86.0664 18.8105V23H84.6426V18.8926C84.6426 18.4902 84.5547 18.1934 84.3789 18.002C84.207 17.8066 83.9238 17.709 83.5293 17.709C82.9551 17.709 82.5273 17.9688 82.2461 18.4883V23H80.8223V16.6602H82.1641ZM89.3066 15.1191V16.6602H90.4258V17.7148H89.3066V21.2539C89.3066 21.4961 89.3535 21.6719 89.4473 21.7812C89.5449 21.8867 89.7168 21.9395 89.9629 21.9395C90.127 21.9395 90.293 21.9199 90.4609 21.8809V22.9824C90.1367 23.0723 89.8242 23.1172 89.5234 23.1172C88.4297 23.1172 87.8828 22.5137 87.8828 21.3066V17.7148H86.8398V16.6602H87.8828V15.1191H89.3066ZM93.0332 23H91.6094V16.6602H93.0332V23ZM91.5215 15.0137C91.5215 14.7949 91.5898 14.6133 91.7266 14.4688C91.8672 14.3242 92.0664 14.252 92.3242 14.252C92.582 14.252 92.7812 14.3242 92.9219 14.4688C93.0625 14.6133 93.1328 14.7949 93.1328 15.0137C93.1328 15.2285 93.0625 15.4082 92.9219 15.5527C92.7812 15.6934 92.582 15.7637 92.3242 15.7637C92.0664 15.7637 91.8672 15.6934 91.7266 15.5527C91.5898 15.4082 91.5215 15.2285 91.5215 15.0137ZM95.9102 16.6602L95.9512 17.3926C96.4199 16.8262 97.0352 16.543 97.7969 16.543C99.1172 16.543 99.7891 17.2988 99.8125 18.8105V23H98.3887V18.8926C98.3887 18.4902 98.3008 18.1934 98.125 18.002C97.9531 17.8066 97.6699 17.709 97.2754 17.709C96.7012 17.709 96.2734 17.9688 95.9922 18.4883V23H94.5684V16.6602H95.9102ZM105.109 22.3789C104.691 22.8711 104.098 23.1172 103.328 23.1172C102.641 23.1172 102.119 22.916 101.764 22.5137C101.412 22.1113 101.236 21.5293 101.236 20.7676V16.6602H102.66V20.75C102.66 21.5547 102.994 21.957 103.662 21.957C104.354 21.957 104.82 21.709 105.062 21.2129V16.6602H106.486V23H105.145L105.109 22.3789ZM110.729 23.1172C109.826 23.1172 109.094 22.834 108.531 22.2676C107.973 21.6973 107.693 20.9395 107.693 19.9941V19.8184C107.693 19.1855 107.814 18.6211 108.057 18.125C108.303 17.625 108.646 17.2363 109.088 16.959C109.529 16.6816 110.021 16.543 110.564 16.543C111.428 16.543 112.094 16.8184 112.562 17.3691C113.035 17.9199 113.271 18.6992 113.271 19.707V20.2812H109.129C109.172 20.8047 109.346 21.2188 109.65 21.5234C109.959 21.8281 110.346 21.9805 110.811 21.9805C111.463 21.9805 111.994 21.7168 112.404 21.1895L113.172 21.9219C112.918 22.3008 112.578 22.5957 112.152 22.8066C111.73 23.0137 111.256 23.1172 110.729 23.1172ZM110.559 17.6855C110.168 17.6855 109.852 17.8223 109.609 18.0957C109.371 18.3691 109.219 18.75 109.152 19.2383H111.865V19.1328C111.834 18.6562 111.707 18.2969 111.484 18.0547C111.262 17.8086 110.953 17.6855 110.559 17.6855ZM122.939 21.0371L123.947 16.6602H125.336L123.607 23H122.436L121.076 18.6465L119.74 23H118.568L116.834 16.6602H118.223L119.248 20.9902L120.549 16.6602H121.621L122.939 21.0371ZM127.803 23H126.379V16.6602H127.803V23ZM126.291 15.0137C126.291 14.7949 126.359 14.6133 126.496 14.4688C126.637 14.3242 126.836 14.252 127.094 14.252C127.352 14.252 127.551 14.3242 127.691 14.4688C127.832 14.6133 127.902 14.7949 127.902 15.0137C127.902 15.2285 127.832 15.4082 127.691 15.5527C127.551 15.6934 127.352 15.7637 127.094 15.7637C126.836 15.7637 126.637 15.6934 126.496 15.5527C126.359 15.4082 126.291 15.2285 126.291 15.0137ZM131.143 15.1191V16.6602H132.262V17.7148H131.143V21.2539C131.143 21.4961 131.189 21.6719 131.283 21.7812C131.381 21.8867 131.553 21.9395 131.799 21.9395C131.963 21.9395 132.129 21.9199 132.297 21.8809V22.9824C131.973 23.0723 131.66 23.1172 131.359 23.1172C130.266 23.1172 129.719 22.5137 129.719 21.3066V17.7148H128.676V16.6602H129.719V15.1191H131.143ZM134.758 17.3516C135.223 16.8125 135.811 16.543 136.521 16.543C137.873 16.543 138.559 17.3145 138.578 18.8574V23H137.154V18.9102C137.154 18.4727 137.059 18.1641 136.867 17.9844C136.68 17.8008 136.402 17.709 136.035 17.709C135.465 17.709 135.039 17.9629 134.758 18.4707V23H133.334V14H134.758V17.3516ZM142.762 19.7832C142.762 18.7988 142.992 18.0137 143.453 17.4277C143.918 16.8379 144.533 16.543 145.299 16.543C146.021 16.543 146.59 16.7949 147.004 17.2988L147.068 16.6602H148.352V22.8066C148.352 23.6387 148.092 24.2949 147.572 24.7754C147.057 25.2559 146.359 25.4961 145.48 25.4961C145.016 25.4961 144.561 25.3984 144.115 25.2031C143.674 25.0117 143.338 24.7598 143.107 24.4473L143.781 23.5918C144.219 24.1113 144.758 24.3711 145.398 24.3711C145.871 24.3711 146.244 24.2422 146.518 23.9844C146.791 23.7305 146.928 23.3555 146.928 22.8594V22.4316C146.518 22.8887 145.971 23.1172 145.287 23.1172C144.545 23.1172 143.938 22.8223 143.465 22.2324C142.996 21.6426 142.762 20.8262 142.762 19.7832ZM144.18 19.9062C144.18 20.543 144.309 21.0449 144.566 21.4121C144.828 21.7754 145.189 21.957 145.65 21.957C146.225 21.957 146.65 21.7109 146.928 21.2188V18.4297C146.658 17.9492 146.236 17.709 145.662 17.709C145.193 17.709 144.828 17.8945 144.566 18.2656C144.309 18.6367 144.18 19.1836 144.18 19.9062ZM149.553 19.7715C149.553 19.1504 149.676 18.5918 149.922 18.0957C150.168 17.5957 150.514 17.2129 150.959 16.9473C151.404 16.6777 151.916 16.543 152.494 16.543C153.35 16.543 154.043 16.8184 154.574 17.3691C155.109 17.9199 155.398 18.6504 155.441 19.5605L155.447 19.8945C155.447 20.5195 155.326 21.0781 155.084 21.5703C154.846 22.0625 154.502 22.4434 154.053 22.7129C153.607 22.9824 153.092 23.1172 152.506 23.1172C151.611 23.1172 150.895 22.8203 150.355 22.2266C149.82 21.6289 149.553 20.834 149.553 19.8418V19.7715ZM150.977 19.8945C150.977 20.5469 151.111 21.0586 151.381 21.4297C151.65 21.7969 152.025 21.9805 152.506 21.9805C152.986 21.9805 153.359 21.793 153.625 21.418C153.895 21.043 154.029 20.4941 154.029 19.7715C154.029 19.1309 153.891 18.623 153.613 18.248C153.34 17.873 152.967 17.6855 152.494 17.6855C152.029 17.6855 151.66 17.8711 151.387 18.2422C151.113 18.6094 150.977 19.1602 150.977 19.8945ZM156.385 19.7715C156.385 19.1504 156.508 18.5918 156.754 18.0957C157 17.5957 157.346 17.2129 157.791 16.9473C158.236 16.6777 158.748 16.543 159.326 16.543C160.182 16.543 160.875 16.8184 161.406 17.3691C161.941 17.9199 162.23 18.6504 162.273 19.5605L162.279 19.8945C162.279 20.5195 162.158 21.0781 161.916 21.5703C161.678 22.0625 161.334 22.4434 160.885 22.7129C160.439 22.9824 159.924 23.1172 159.338 23.1172C158.443 23.1172 157.727 22.8203 157.188 22.2266C156.652 21.6289 156.385 20.834 156.385 19.8418V19.7715ZM157.809 19.8945C157.809 20.5469 157.943 21.0586 158.213 21.4297C158.482 21.7969 158.857 21.9805 159.338 21.9805C159.818 21.9805 160.191 21.793 160.457 21.418C160.727 21.043 160.861 20.4941 160.861 19.7715C160.861 19.1309 160.723 18.623 160.445 18.248C160.172 17.873 159.799 17.6855 159.326 17.6855C158.861 17.6855 158.492 17.8711 158.219 18.2422C157.945 18.6094 157.809 19.1602 157.809 19.8945ZM163.234 19.7832C163.234 18.7988 163.465 18.0137 163.926 17.4277C164.391 16.8379 165.006 16.543 165.771 16.543C166.494 16.543 167.062 16.7949 167.477 17.2988L167.541 16.6602H168.824V22.8066C168.824 23.6387 168.564 24.2949 168.045 24.7754C167.529 25.2559 166.832 25.4961 165.953 25.4961C165.488 25.4961 165.033 25.3984 164.588 25.2031C164.146 25.0117 163.811 24.7598 163.58 24.4473L164.254 23.5918C164.691 24.1113 165.23 24.3711 165.871 24.3711C166.344 24.3711 166.717 24.2422 166.99 23.9844C167.264 23.7305 167.4 23.3555 167.4 22.8594V22.4316C166.99 22.8887 166.443 23.1172 165.76 23.1172C165.018 23.1172 164.41 22.8223 163.938 22.2324C163.469 21.6426 163.234 20.8262 163.234 19.7832ZM164.652 19.9062C164.652 20.543 164.781 21.0449 165.039 21.4121C165.301 21.7754 165.662 21.957 166.123 21.957C166.697 21.957 167.123 21.7109 167.4 21.2188V18.4297C167.131 17.9492 166.709 17.709 166.135 17.709C165.666 17.709 165.301 17.8945 165.039 18.2656C164.781 18.6367 164.652 19.1836 164.652 19.9062ZM171.807 23H170.383V14H171.807V23ZM176.154 23.1172C175.252 23.1172 174.52 22.834 173.957 22.2676C173.398 21.6973 173.119 20.9395 173.119 19.9941V19.8184C173.119 19.1855 173.24 18.6211 173.482 18.125C173.729 17.625 174.072 17.2363 174.514 16.959C174.955 16.6816 175.447 16.543 175.99 16.543C176.854 16.543 177.52 16.8184 177.988 17.3691C178.461 17.9199 178.697 18.6992 178.697 19.707V20.2812H174.555C174.598 20.8047 174.771 21.2188 175.076 21.5234C175.385 21.8281 175.771 21.9805 176.236 21.9805C176.889 21.9805 177.42 21.7168 177.83 21.1895L178.598 21.9219C178.344 22.3008 178.004 22.5957 177.578 22.8066C177.156 23.0137 176.682 23.1172 176.154 23.1172ZM175.984 17.6855C175.594 17.6855 175.277 17.8223 175.035 18.0957C174.797 18.3691 174.645 18.75 174.578 19.2383H177.291V19.1328C177.26 18.6562 177.133 18.2969 176.91 18.0547C176.688 17.8086 176.379 17.6855 175.984 17.6855Z" fill="#1976D2"/>
<rect x="17" y="6" width="26" height="26" rx="2" fill="white"/>
<path d="M40.6229 16.8781H39.7503V16.8332H30.0003V21.1665H36.1228C35.2296 23.689 32.8294 25.4998 30.0003 25.4998C26.4107 25.4998 23.5003 22.5895 23.5003 18.9998C23.5003 15.4102 26.4107 12.4998 30.0003 12.4998C31.6573 12.4998 33.1647 13.1249 34.3125 14.146L37.3767 11.0818C35.4419 9.27855 32.8538 8.1665 30.0003 8.1665C24.0176 8.1665 19.167 13.0171 19.167 18.9998C19.167 24.9825 24.0176 29.8332 30.0003 29.8332C35.983 29.8332 40.8337 24.9825 40.8337 18.9998C40.8337 18.2735 40.7589 17.5644 40.6229 16.8781Z" fill="#FFC107"/>
<path d="M20.416 13.9575L23.9753 16.5678C24.9384 14.1833 27.2708 12.4998 30.0003 12.4998C31.6572 12.4998 33.1647 13.1249 34.3125 14.146L37.3767 11.0818C35.4418 9.27855 32.8538 8.1665 30.0003 8.1665C25.8392 8.1665 22.2306 10.5157 20.416 13.9575Z" fill="#FF3D00"/>
<path d="M29.9998 29.8332C32.7981 29.8332 35.3407 28.7623 37.2631 27.0209L33.9101 24.1836C32.7859 25.0386 31.4122 25.501 29.9998 25.4999C27.1821 25.4999 24.7896 23.7032 23.8882 21.1958L20.3555 23.9177C22.1484 27.4261 25.7895 29.8332 29.9998 29.8332Z" fill="#4CAF50"/>
<path d="M40.6226 16.8785H39.75V16.8335H30V21.1668H36.1225C35.6952 22.3674 34.9256 23.4165 33.9087 24.1845L33.9103 24.1834L37.2632 27.0206C37.026 27.2362 40.8333 24.4168 40.8333 19.0002C40.8333 18.2738 40.7586 17.5647 40.6226 16.8785Z" fill="#1976D2"/>
</g>
<defs>
<filter id="filter0_d" x="0.900391" y="0.899902" width="336.2" height="44.2" filterUnits="userSpaceOnUse" color-interpolation-filters="sRGB">
<feFlood flood-opacity="0" result="BackgroundImageFix"/>
<feColorMatrix in="SourceAlpha" type="matrix" values="0 0 0 0 0 0 0 0 0 0 0 0 0 0 0 0 0 0 127 0"/>
<feOffset dy="4"/>
<feGaussianBlur stdDeviation="2"/>
<feColorMatrix type="matrix" values="0 0 0 0 0.1 0 0 0 0 0.1 0 0 0 0 0.1 0 0 0 0.04 0"/>
<feBlend mode="normal" in2="BackgroundImageFix" result="effect1_dropShadow"/>
<feBlend mode="normal" in="SourceGraphic" in2="effect1_dropShadow" result="shape"/>
</filter>
</defs>
</svg>
