<svg width="328" height="36" viewBox="0 0 328 36" fill="none" xmlns="http://www.w3.org/2000/svg">
<rect width="328" height="36" rx="5" fill="#1976D2"/>
<path d="M65.334 20.9805C65.6895 20.9805 65.9844 20.877 66.2188 20.6699C66.4531 20.4629 66.5781 20.207 66.5938 19.9023H67.9355C67.9199 20.2969 67.7969 20.666 67.5664 21.0098C67.3359 21.3496 67.0234 21.6191 66.6289 21.8184C66.2344 22.0176 65.8086 22.1172 65.3516 22.1172C64.4648 22.1172 63.7617 21.8301 63.2422 21.2559C62.7227 20.6816 62.4629 19.8887 62.4629 18.877V18.7305C62.4629 17.7656 62.7207 16.9941 63.2363 16.416C63.752 15.834 64.4551 15.543 65.3457 15.543C66.0996 15.543 66.7129 15.7637 67.1855 16.2051C67.6621 16.6426 67.9121 17.2188 67.9355 17.9336H66.5938C66.5781 17.5703 66.4531 17.2715 66.2188 17.0371C65.9883 16.8027 65.6934 16.6855 65.334 16.6855C64.873 16.6855 64.5176 16.8535 64.2676 17.1895C64.0176 17.5215 63.8906 18.0273 63.8867 18.707V18.9355C63.8867 19.623 64.0098 20.1367 64.2559 20.4766C64.5059 20.8125 64.8652 20.9805 65.334 20.9805ZM68.7441 18.7715C68.7441 18.1504 68.8672 17.5918 69.1133 17.0957C69.3594 16.5957 69.7051 16.2129 70.1504 15.9473C70.5957 15.6777 71.1074 15.543 71.6855 15.543C72.541 15.543 73.2344 15.8184 73.7656 16.3691C74.3008 16.9199 74.5898 17.6504 74.6328 18.5605L74.6387 18.8945C74.6387 19.5195 74.5176 20.0781 74.2754 20.5703C74.0371 21.0625 73.6934 21.4434 73.2441 21.7129C72.7988 21.9824 72.2832 22.1172 71.6973 22.1172C70.8027 22.1172 70.0859 21.8203 69.5469 21.2266C69.0117 20.6289 68.7441 19.834 68.7441 18.8418V18.7715ZM70.168 18.8945C70.168 19.5469 70.3027 20.0586 70.5723 20.4297C70.8418 20.7969 71.2168 20.9805 71.6973 20.9805C72.1777 20.9805 72.5508 20.793 72.8164 20.418C73.0859 20.043 73.2207 19.4941 73.2207 18.7715C73.2207 18.1309 73.082 17.623 72.8047 17.248C72.5312 16.873 72.1582 16.6855 71.6855 16.6855C71.2207 16.6855 70.8516 16.8711 70.5781 17.2422C70.3047 17.6094 70.168 18.1602 70.168 18.8945ZM77.1641 15.6602L77.2051 16.3926C77.6738 15.8262 78.2891 15.543 79.0508 15.543C80.3711 15.543 81.043 16.2988 81.0664 17.8105V22H79.6426V17.8926C79.6426 17.4902 79.5547 17.1934 79.3789 17.002C79.207 16.8066 78.9238 16.709 78.5293 16.709C77.9551 16.709 77.5273 16.9688 77.2461 17.4883V22H75.8223V15.6602H77.1641ZM84.3066 14.1191V15.6602H85.4258V16.7148H84.3066V20.2539C84.3066 20.4961 84.3535 20.6719 84.4473 20.7812C84.5449 20.8867 84.7168 20.9395 84.9629 20.9395C85.127 20.9395 85.293 20.9199 85.4609 20.8809V21.9824C85.1367 22.0723 84.8242 22.1172 84.5234 22.1172C83.4297 22.1172 82.8828 21.5137 82.8828 20.3066V16.7148H81.8398V15.6602H82.8828V14.1191H84.3066ZM88.0332 22H86.6094V15.6602H88.0332V22ZM86.5215 14.0137C86.5215 13.7949 86.5898 13.6133 86.7266 13.4688C86.8672 13.3242 87.0664 13.252 87.3242 13.252C87.582 13.252 87.7812 13.3242 87.9219 13.4688C88.0625 13.6133 88.1328 13.7949 88.1328 14.0137C88.1328 14.2285 88.0625 14.4082 87.9219 14.5527C87.7812 14.6934 87.582 14.7637 87.3242 14.7637C87.0664 14.7637 86.8672 14.6934 86.7266 14.5527C86.5898 14.4082 86.5215 14.2285 86.5215 14.0137ZM90.9102 15.6602L90.9512 16.3926C91.4199 15.8262 92.0352 15.543 92.7969 15.543C94.1172 15.543 94.7891 16.2988 94.8125 17.8105V22H93.3887V17.8926C93.3887 17.4902 93.3008 17.1934 93.125 17.002C92.9531 16.8066 92.6699 16.709 92.2754 16.709C91.7012 16.709 91.2734 16.9688 90.9922 17.4883V22H89.5684V15.6602H90.9102ZM100.109 21.3789C99.6914 21.8711 99.0977 22.1172 98.3281 22.1172C97.6406 22.1172 97.1191 21.916 96.7637 21.5137C96.4121 21.1113 96.2363 20.5293 96.2363 19.7676V15.6602H97.6602V19.75C97.6602 20.5547 97.9941 20.957 98.6621 20.957C99.3535 20.957 99.8203 20.709 100.062 20.2129V15.6602H101.486V22H100.145L100.109 21.3789ZM105.729 22.1172C104.826 22.1172 104.094 21.834 103.531 21.2676C102.973 20.6973 102.693 19.9395 102.693 18.9941V18.8184C102.693 18.1855 102.814 17.6211 103.057 17.125C103.303 16.625 103.646 16.2363 104.088 15.959C104.529 15.6816 105.021 15.543 105.564 15.543C106.428 15.543 107.094 15.8184 107.562 16.3691C108.035 16.9199 108.271 17.6992 108.271 18.707V19.2812H104.129C104.172 19.8047 104.346 20.2188 104.65 20.5234C104.959 20.8281 105.346 20.9805 105.811 20.9805C106.463 20.9805 106.994 20.7168 107.404 20.1895L108.172 20.9219C107.918 21.3008 107.578 21.5957 107.152 21.8066C106.73 22.0137 106.256 22.1172 105.729 22.1172ZM105.559 16.6855C105.168 16.6855 104.852 16.8223 104.609 17.0957C104.371 17.3691 104.219 17.75 104.152 18.2383H106.865V18.1328C106.834 17.6562 106.707 17.2969 106.484 17.0547C106.262 16.8086 105.953 16.6855 105.559 16.6855ZM117.939 20.0371L118.947 15.6602H120.336L118.607 22H117.436L116.076 17.6465L114.74 22H113.568L111.834 15.6602H113.223L114.248 19.9902L115.549 15.6602H116.621L117.939 20.0371ZM122.803 22H121.379V15.6602H122.803V22ZM121.291 14.0137C121.291 13.7949 121.359 13.6133 121.496 13.4688C121.637 13.3242 121.836 13.252 122.094 13.252C122.352 13.252 122.551 13.3242 122.691 13.4688C122.832 13.6133 122.902 13.7949 122.902 14.0137C122.902 14.2285 122.832 14.4082 122.691 14.5527C122.551 14.6934 122.352 14.7637 122.094 14.7637C121.836 14.7637 121.637 14.6934 121.496 14.5527C121.359 14.4082 121.291 14.2285 121.291 14.0137ZM126.143 14.1191V15.6602H127.262V16.7148H126.143V20.2539C126.143 20.4961 126.189 20.6719 126.283 20.7812C126.381 20.8867 126.553 20.9395 126.799 20.9395C126.963 20.9395 127.129 20.9199 127.297 20.8809V21.9824C126.973 22.0723 126.66 22.1172 126.359 22.1172C125.266 22.1172 124.719 21.5137 124.719 20.3066V16.7148H123.676V15.6602H124.719V14.1191H126.143ZM129.758 16.3516C130.223 15.8125 130.811 15.543 131.521 15.543C132.873 15.543 133.559 16.3145 133.578 17.8574V22H132.154V17.9102C132.154 17.4727 132.059 17.1641 131.867 16.9844C131.68 16.8008 131.402 16.709 131.035 16.709C130.465 16.709 130.039 16.9629 129.758 17.4707V22H128.334V13H129.758V16.3516ZM139.795 14.1191V15.6602H140.914V16.7148H139.795V20.2539C139.795 20.4961 139.842 20.6719 139.936 20.7812C140.033 20.8867 140.205 20.9395 140.451 20.9395C140.615 20.9395 140.781 20.9199 140.949 20.8809V21.9824C140.625 22.0723 140.312 22.1172 140.012 22.1172C138.918 22.1172 138.371 21.5137 138.371 20.3066V16.7148H137.328V15.6602H138.371V14.1191H139.795ZM147.576 20.0371L148.584 15.6602H149.973L148.244 22H147.072L145.713 17.6465L144.377 22H143.205L141.471 15.6602H142.859L143.885 19.9902L145.186 15.6602H146.258L147.576 20.0371ZM152.439 22H151.016V15.6602H152.439V22ZM150.928 14.0137C150.928 13.7949 150.996 13.6133 151.133 13.4688C151.273 13.3242 151.473 13.252 151.73 13.252C151.988 13.252 152.188 13.3242 152.328 13.4688C152.469 13.6133 152.539 13.7949 152.539 14.0137C152.539 14.2285 152.469 14.4082 152.328 14.5527C152.188 14.6934 151.988 14.7637 151.73 14.7637C151.473 14.7637 151.273 14.6934 151.133 14.5527C150.996 14.4082 150.928 14.2285 150.928 14.0137ZM155.779 14.1191V15.6602H156.898V16.7148H155.779V20.2539C155.779 20.4961 155.826 20.6719 155.92 20.7812C156.018 20.8867 156.189 20.9395 156.436 20.9395C156.6 20.9395 156.766 20.9199 156.934 20.8809V21.9824C156.609 22.0723 156.297 22.1172 155.996 22.1172C154.902 22.1172 154.355 21.5137 154.355 20.3066V16.7148H153.312V15.6602H154.355V14.1191H155.779ZM159.775 14.1191V15.6602H160.895V16.7148H159.775V20.2539C159.775 20.4961 159.822 20.6719 159.916 20.7812C160.014 20.8867 160.186 20.9395 160.432 20.9395C160.596 20.9395 160.762 20.9199 160.93 20.8809V21.9824C160.605 22.0723 160.293 22.1172 159.992 22.1172C158.898 22.1172 158.352 21.5137 158.352 20.3066V16.7148H157.309V15.6602H158.352V14.1191H159.775ZM164.779 22.1172C163.877 22.1172 163.145 21.834 162.582 21.2676C162.023 20.6973 161.744 19.9395 161.744 18.9941V18.8184C161.744 18.1855 161.865 17.6211 162.107 17.125C162.354 16.625 162.697 16.2363 163.139 15.959C163.58 15.6816 164.072 15.543 164.615 15.543C165.479 15.543 166.145 15.8184 166.613 16.3691C167.086 16.9199 167.322 17.6992 167.322 18.707V19.2812H163.18C163.223 19.8047 163.396 20.2188 163.701 20.5234C164.01 20.8281 164.396 20.9805 164.861 20.9805C165.514 20.9805 166.045 20.7168 166.455 20.1895L167.223 20.9219C166.969 21.3008 166.629 21.5957 166.203 21.8066C165.781 22.0137 165.307 22.1172 164.779 22.1172ZM164.609 16.6855C164.219 16.6855 163.902 16.8223 163.66 17.0957C163.422 17.3691 163.27 17.75 163.203 18.2383H165.916V18.1328C165.885 17.6562 165.758 17.2969 165.535 17.0547C165.312 16.8086 165.004 16.6855 164.609 16.6855ZM171.752 16.9609C171.564 16.9297 171.371 16.9141 171.172 16.9141C170.52 16.9141 170.08 17.1641 169.854 17.6641V22H168.43V15.6602H169.789L169.824 16.3691C170.168 15.8184 170.645 15.543 171.254 15.543C171.457 15.543 171.625 15.5703 171.758 15.625L171.752 16.9609Z" fill="white"/>
<path d="M12 5V31H38V5H12ZM32.8 14.1V14.5875C32.8 19.95 28.7375 25.9625 21.425 25.9625C19.15 25.9625 17.0375 25.3125 15.25 24.175H16.225C18.175 24.175 19.8 23.525 21.2625 22.3875C19.475 22.3875 18.0125 21.25 17.525 19.625H18.3375C18.6625 19.625 18.9875 19.625 19.3125 19.4625C17.525 19.1375 16.0625 17.5125 16.0625 15.5625C16.55 15.8875 17.2 16.05 17.85 16.05C16.7125 15.4 16.0625 14.1 16.0625 12.8C16.0625 11.9875 16.225 11.3375 16.55 10.85C18.5 13.2875 21.5875 14.75 24.8375 14.9125C24.8375 14.5875 24.675 14.2625 24.675 13.9375C24.675 11.6625 26.4625 9.875 28.7375 9.875C29.875 9.875 30.85 10.3625 31.6625 11.175C32.6375 11.0125 33.45 10.6875 34.2625 10.2C33.9375 11.175 33.2875 11.9875 32.475 12.475C33.2875 12.3125 34.1 12.15 34.75 11.825C34.2625 12.8 33.6125 13.45 32.8 14.1Z" fill="white"/>
</svg>
