<svg width="328" height="36" viewBox="0 0 328 36" fill="none" xmlns="http://www.w3.org/2000/svg">
<rect width="328" height="36" rx="5" fill="#3B5998"/>
<path d="M65.334 20.9805C65.6895 20.9805 65.9844 20.877 66.2188 20.6699C66.4531 20.4629 66.5781 20.207 66.5938 19.9023H67.9355C67.9199 20.2969 67.7969 20.666 67.5664 21.0098C67.3359 21.3496 67.0234 21.6191 66.6289 21.8184C66.2344 22.0176 65.8086 22.1172 65.3516 22.1172C64.4648 22.1172 63.7617 21.8301 63.2422 21.2559C62.7227 20.6816 62.4629 19.8887 62.4629 18.877V18.7305C62.4629 17.7656 62.7207 16.9941 63.2363 16.416C63.752 15.834 64.4551 15.543 65.3457 15.543C66.0996 15.543 66.7129 15.7637 67.1855 16.2051C67.6621 16.6426 67.9121 17.2188 67.9355 17.9336H66.5938C66.5781 17.5703 66.4531 17.2715 66.2188 17.0371C65.9883 16.8027 65.6934 16.6855 65.334 16.6855C64.873 16.6855 64.5176 16.8535 64.2676 17.1895C64.0176 17.5215 63.8906 18.0273 63.8867 18.707V18.9355C63.8867 19.623 64.0098 20.1367 64.2559 20.4766C64.5059 20.8125 64.8652 20.9805 65.334 20.9805ZM68.7441 18.7715C68.7441 18.1504 68.8672 17.5918 69.1133 17.0957C69.3594 16.5957 69.7051 16.2129 70.1504 15.9473C70.5957 15.6777 71.1074 15.543 71.6855 15.543C72.541 15.543 73.2344 15.8184 73.7656 16.3691C74.3008 16.9199 74.5898 17.6504 74.6328 18.5605L74.6387 18.8945C74.6387 19.5195 74.5176 20.0781 74.2754 20.5703C74.0371 21.0625 73.6934 21.4434 73.2441 21.7129C72.7988 21.9824 72.2832 22.1172 71.6973 22.1172C70.8027 22.1172 70.0859 21.8203 69.5469 21.2266C69.0117 20.6289 68.7441 19.834 68.7441 18.8418V18.7715ZM70.168 18.8945C70.168 19.5469 70.3027 20.0586 70.5723 20.4297C70.8418 20.7969 71.2168 20.9805 71.6973 20.9805C72.1777 20.9805 72.5508 20.793 72.8164 20.418C73.0859 20.043 73.2207 19.4941 73.2207 18.7715C73.2207 18.1309 73.082 17.623 72.8047 17.248C72.5312 16.873 72.1582 16.6855 71.6855 16.6855C71.2207 16.6855 70.8516 16.8711 70.5781 17.2422C70.3047 17.6094 70.168 18.1602 70.168 18.8945ZM77.1641 15.6602L77.2051 16.3926C77.6738 15.8262 78.2891 15.543 79.0508 15.543C80.3711 15.543 81.043 16.2988 81.0664 17.8105V22H79.6426V17.8926C79.6426 17.4902 79.5547 17.1934 79.3789 17.002C79.207 16.8066 78.9238 16.709 78.5293 16.709C77.9551 16.709 77.5273 16.9688 77.2461 17.4883V22H75.8223V15.6602H77.1641ZM84.3066 14.1191V15.6602H85.4258V16.7148H84.3066V20.2539C84.3066 20.4961 84.3535 20.6719 84.4473 20.7812C84.5449 20.8867 84.7168 20.9395 84.9629 20.9395C85.127 20.9395 85.293 20.9199 85.4609 20.8809V21.9824C85.1367 22.0723 84.8242 22.1172 84.5234 22.1172C83.4297 22.1172 82.8828 21.5137 82.8828 20.3066V16.7148H81.8398V15.6602H82.8828V14.1191H84.3066ZM88.0332 22H86.6094V15.6602H88.0332V22ZM86.5215 14.0137C86.5215 13.7949 86.5898 13.6133 86.7266 13.4688C86.8672 13.3242 87.0664 13.252 87.3242 13.252C87.582 13.252 87.7812 13.3242 87.9219 13.4688C88.0625 13.6133 88.1328 13.7949 88.1328 14.0137C88.1328 14.2285 88.0625 14.4082 87.9219 14.5527C87.7812 14.6934 87.582 14.7637 87.3242 14.7637C87.0664 14.7637 86.8672 14.6934 86.7266 14.5527C86.5898 14.4082 86.5215 14.2285 86.5215 14.0137ZM90.9102 15.6602L90.9512 16.3926C91.4199 15.8262 92.0352 15.543 92.7969 15.543C94.1172 15.543 94.7891 16.2988 94.8125 17.8105V22H93.3887V17.8926C93.3887 17.4902 93.3008 17.1934 93.125 17.002C92.9531 16.8066 92.6699 16.709 92.2754 16.709C91.7012 16.709 91.2734 16.9688 90.9922 17.4883V22H89.5684V15.6602H90.9102ZM100.109 21.3789C99.6914 21.8711 99.0977 22.1172 98.3281 22.1172C97.6406 22.1172 97.1191 21.916 96.7637 21.5137C96.4121 21.1113 96.2363 20.5293 96.2363 19.7676V15.6602H97.6602V19.75C97.6602 20.5547 97.9941 20.957 98.6621 20.957C99.3535 20.957 99.8203 20.709 100.062 20.2129V15.6602H101.486V22H100.145L100.109 21.3789ZM105.729 22.1172C104.826 22.1172 104.094 21.834 103.531 21.2676C102.973 20.6973 102.693 19.9395 102.693 18.9941V18.8184C102.693 18.1855 102.814 17.6211 103.057 17.125C103.303 16.625 103.646 16.2363 104.088 15.959C104.529 15.6816 105.021 15.543 105.564 15.543C106.428 15.543 107.094 15.8184 107.562 16.3691C108.035 16.9199 108.271 17.6992 108.271 18.707V19.2812H104.129C104.172 19.8047 104.346 20.2188 104.65 20.5234C104.959 20.8281 105.346 20.9805 105.811 20.9805C106.463 20.9805 106.994 20.7168 107.404 20.1895L108.172 20.9219C107.918 21.3008 107.578 21.5957 107.152 21.8066C106.73 22.0137 106.256 22.1172 105.729 22.1172ZM105.559 16.6855C105.168 16.6855 104.852 16.8223 104.609 17.0957C104.371 17.3691 104.219 17.75 104.152 18.2383H106.865V18.1328C106.834 17.6562 106.707 17.2969 106.484 17.0547C106.262 16.8086 105.953 16.6855 105.559 16.6855ZM117.939 20.0371L118.947 15.6602H120.336L118.607 22H117.436L116.076 17.6465L114.74 22H113.568L111.834 15.6602H113.223L114.248 19.9902L115.549 15.6602H116.621L117.939 20.0371ZM122.803 22H121.379V15.6602H122.803V22ZM121.291 14.0137C121.291 13.7949 121.359 13.6133 121.496 13.4688C121.637 13.3242 121.836 13.252 122.094 13.252C122.352 13.252 122.551 13.3242 122.691 13.4688C122.832 13.6133 122.902 13.7949 122.902 14.0137C122.902 14.2285 122.832 14.4082 122.691 14.5527C122.551 14.6934 122.352 14.7637 122.094 14.7637C121.836 14.7637 121.637 14.6934 121.496 14.5527C121.359 14.4082 121.291 14.2285 121.291 14.0137ZM126.143 14.1191V15.6602H127.262V16.7148H126.143V20.2539C126.143 20.4961 126.189 20.6719 126.283 20.7812C126.381 20.8867 126.553 20.9395 126.799 20.9395C126.963 20.9395 127.129 20.9199 127.297 20.8809V21.9824C126.973 22.0723 126.66 22.1172 126.359 22.1172C125.266 22.1172 124.719 21.5137 124.719 20.3066V16.7148H123.676V15.6602H124.719V14.1191H126.143ZM129.758 16.3516C130.223 15.8125 130.811 15.543 131.521 15.543C132.873 15.543 133.559 16.3145 133.578 17.8574V22H132.154V17.9102C132.154 17.4727 132.059 17.1641 131.867 16.9844C131.68 16.8008 131.402 16.709 131.035 16.709C130.465 16.709 130.039 16.9629 129.758 17.4707V22H128.334V13H129.758V16.3516ZM138.512 22V16.7148H137.545V15.6602H138.512V15.0801C138.512 14.377 138.707 13.834 139.098 13.4512C139.488 13.0684 140.035 12.877 140.738 12.877C140.988 12.877 141.254 12.9121 141.535 12.9824L141.5 14.0957C141.344 14.0645 141.162 14.0488 140.955 14.0488C140.275 14.0488 139.936 14.3984 139.936 15.0977V15.6602H141.225V16.7148H139.936V22H138.512ZM146.053 22C145.99 21.8789 145.936 21.6816 145.889 21.4082C145.436 21.8809 144.881 22.1172 144.225 22.1172C143.588 22.1172 143.068 21.9355 142.666 21.5723C142.264 21.209 142.062 20.7598 142.062 20.2246C142.062 19.5488 142.312 19.0312 142.812 18.6719C143.316 18.3086 144.035 18.127 144.969 18.127H145.842V17.7109C145.842 17.3828 145.75 17.1211 145.566 16.9258C145.383 16.7266 145.104 16.627 144.729 16.627C144.404 16.627 144.139 16.709 143.932 16.873C143.725 17.0332 143.621 17.2383 143.621 17.4883H142.197C142.197 17.1406 142.312 16.8164 142.543 16.5156C142.773 16.2109 143.086 15.9727 143.48 15.8008C143.879 15.6289 144.322 15.543 144.811 15.543C145.553 15.543 146.145 15.7305 146.586 16.1055C147.027 16.4766 147.254 17 147.266 17.6758V20.5352C147.266 21.1055 147.346 21.5605 147.506 21.9004V22H146.053ZM144.488 20.9746C144.77 20.9746 145.033 20.9062 145.279 20.7695C145.529 20.6328 145.717 20.4492 145.842 20.2188V19.0234H145.074C144.547 19.0234 144.15 19.1152 143.885 19.2988C143.619 19.4824 143.486 19.7422 143.486 20.0781C143.486 20.3516 143.576 20.5703 143.756 20.7344C143.939 20.8945 144.184 20.9746 144.488 20.9746ZM151.361 20.9805C151.717 20.9805 152.012 20.877 152.246 20.6699C152.48 20.4629 152.605 20.207 152.621 19.9023H153.963C153.947 20.2969 153.824 20.666 153.594 21.0098C153.363 21.3496 153.051 21.6191 152.656 21.8184C152.262 22.0176 151.836 22.1172 151.379 22.1172C150.492 22.1172 149.789 21.8301 149.27 21.2559C148.75 20.6816 148.49 19.8887 148.49 18.877V18.7305C148.49 17.7656 148.748 16.9941 149.264 16.416C149.779 15.834 150.482 15.543 151.373 15.543C152.127 15.543 152.74 15.7637 153.213 16.2051C153.689 16.6426 153.939 17.2188 153.963 17.9336H152.621C152.605 17.5703 152.48 17.2715 152.246 17.0371C152.016 16.8027 151.721 16.6855 151.361 16.6855C150.9 16.6855 150.545 16.8535 150.295 17.1895C150.045 17.5215 149.918 18.0273 149.914 18.707V18.9355C149.914 19.623 150.037 20.1367 150.283 20.4766C150.533 20.8125 150.893 20.9805 151.361 20.9805ZM157.83 22.1172C156.928 22.1172 156.195 21.834 155.633 21.2676C155.074 20.6973 154.795 19.9395 154.795 18.9941V18.8184C154.795 18.1855 154.916 17.6211 155.158 17.125C155.404 16.625 155.748 16.2363 156.189 15.959C156.631 15.6816 157.123 15.543 157.666 15.543C158.529 15.543 159.195 15.8184 159.664 16.3691C160.137 16.9199 160.373 17.6992 160.373 18.707V19.2812H156.23C156.273 19.8047 156.447 20.2188 156.752 20.5234C157.061 20.8281 157.447 20.9805 157.912 20.9805C158.564 20.9805 159.096 20.7168 159.506 20.1895L160.273 20.9219C160.02 21.3008 159.68 21.5957 159.254 21.8066C158.832 22.0137 158.357 22.1172 157.83 22.1172ZM157.66 16.6855C157.27 16.6855 156.953 16.8223 156.711 17.0957C156.473 17.3691 156.32 17.75 156.254 18.2383H158.967V18.1328C158.936 17.6562 158.809 17.2969 158.586 17.0547C158.363 16.8086 158.055 16.6855 157.66 16.6855ZM167.047 18.8945C167.047 19.8789 166.826 20.6621 166.385 21.2441C165.947 21.8262 165.344 22.1172 164.574 22.1172C163.832 22.1172 163.254 21.8496 162.84 21.3145L162.77 22H161.48V13H162.904V16.2695C163.314 15.7852 163.867 15.543 164.562 15.543C165.336 15.543 165.943 15.8301 166.385 16.4043C166.826 16.9785 167.047 17.7812 167.047 18.8125V18.8945ZM165.623 18.7715C165.623 18.084 165.502 17.5684 165.26 17.2246C165.018 16.8809 164.666 16.709 164.205 16.709C163.588 16.709 163.154 16.9785 162.904 17.5176V20.1309C163.158 20.6816 163.596 20.957 164.217 20.957C164.662 20.957 165.006 20.791 165.248 20.459C165.49 20.127 165.615 19.625 165.623 18.9531V18.7715ZM167.979 18.7715C167.979 18.1504 168.102 17.5918 168.348 17.0957C168.594 16.5957 168.939 16.2129 169.385 15.9473C169.83 15.6777 170.342 15.543 170.92 15.543C171.775 15.543 172.469 15.8184 173 16.3691C173.535 16.9199 173.824 17.6504 173.867 18.5605L173.873 18.8945C173.873 19.5195 173.752 20.0781 173.51 20.5703C173.271 21.0625 172.928 21.4434 172.479 21.7129C172.033 21.9824 171.518 22.1172 170.932 22.1172C170.037 22.1172 169.32 21.8203 168.781 21.2266C168.246 20.6289 167.979 19.834 167.979 18.8418V18.7715ZM169.402 18.8945C169.402 19.5469 169.537 20.0586 169.807 20.4297C170.076 20.7969 170.451 20.9805 170.932 20.9805C171.412 20.9805 171.785 20.793 172.051 20.418C172.32 20.043 172.455 19.4941 172.455 18.7715C172.455 18.1309 172.316 17.623 172.039 17.248C171.766 16.873 171.393 16.6855 170.92 16.6855C170.455 16.6855 170.086 16.8711 169.812 17.2422C169.539 17.6094 169.402 18.1602 169.402 18.8945ZM174.811 18.7715C174.811 18.1504 174.934 17.5918 175.18 17.0957C175.426 16.5957 175.771 16.2129 176.217 15.9473C176.662 15.6777 177.174 15.543 177.752 15.543C178.607 15.543 179.301 15.8184 179.832 16.3691C180.367 16.9199 180.656 17.6504 180.699 18.5605L180.705 18.8945C180.705 19.5195 180.584 20.0781 180.342 20.5703C180.104 21.0625 179.76 21.4434 179.311 21.7129C178.865 21.9824 178.35 22.1172 177.764 22.1172C176.869 22.1172 176.152 21.8203 175.613 21.2266C175.078 20.6289 174.811 19.834 174.811 18.8418V18.7715ZM176.234 18.8945C176.234 19.5469 176.369 20.0586 176.639 20.4297C176.908 20.7969 177.283 20.9805 177.764 20.9805C178.244 20.9805 178.617 20.793 178.883 20.418C179.152 20.043 179.287 19.4941 179.287 18.7715C179.287 18.1309 179.148 17.623 178.871 17.248C178.598 16.873 178.225 16.6855 177.752 16.6855C177.287 16.6855 176.918 16.8711 176.645 17.2422C176.371 17.6094 176.234 18.1602 176.234 18.8945ZM183.969 19.2812L183.336 19.9316V22H181.912V13H183.336V18.1914L183.781 17.6348L185.533 15.6602H187.244L184.889 18.3027L187.496 22H185.85L183.969 19.2812Z" fill="white"/>
<g clip-path="url(#clip0)">
<path d="M36.565 31.0001C37.3574 31.0001 38 30.3576 38 29.5651V6.43498C38 5.64238 37.3574 5 36.565 5H13.435C12.6423 5 12 5.64238 12 6.43498V29.5651C12 30.3576 12.6423 31.0001 13.435 31.0001H36.565Z" fill="white"/>
<path d="M29.9394 30.9999V20.9313H33.3191L33.8251 17.0075H29.9394V14.5021C29.9394 13.3661 30.2549 12.5918 31.8841 12.5918L33.962 12.5909V9.08144C33.6024 9.0336 32.3691 8.92676 30.9342 8.92676C27.9383 8.92676 25.8874 10.7554 25.8874 14.1137V17.0075H22.499V20.9313H25.8874V30.9999H29.9394Z" fill="#3B5998"/>
</g>
<defs>
<clipPath id="clip0">
<rect x="12" y="5" width="26" height="26" rx="2" fill="white"/>
</clipPath>
</defs>
</svg>
